<svg height="496pt" viewBox="0 -40 496.08 496" width="496pt" xmlns="http://www.w3.org/2000/svg"><path d="m0 32.039062h24v288h-24zm0 0" fill="#aab2bd"/><path d="m400 32.039062h-376v288h312c0-44.160156 19.839844-72 64-72h.160156v-216zm0 0" fill="#656d78"/><path d="m400 16.039062v16h-400v-16c0-8.800781 7.199219-15.9999995 16-15.9999995h368c8.886719 0 16 7.1992185 16 15.9999995zm0 0" fill="#ccd1d9"/><path d="m24.238281 24.039062c-4.414062 0-8.03125-3.574218-8.03125-8 0-4.421874 3.535157-8 7.953125-8h.085938c4.417968 0 8 3.578126 8 8 0 4.425782-3.589844 8-8.007813 8zm0 0" fill="#ed5565"/><path d="m48.238281 24.039062c-4.414062 0-8.03125-3.574218-8.03125-8 0-4.421874 3.535157-8 7.953125-8h.085938c4.417968 0 8 3.578126 8 8 0 4.425782-3.589844 8-8.007813 8zm0 0" fill="#ffce54"/><path d="m72.238281 24.039062c-4.414062 0-8.03125-3.574218-8.03125-8 0-4.421874 3.535157-8 7.953125-8h.085938c4.417968 0 8 3.578126 8 8 0 4.425782-3.589844 8-8.007813 8zm0 0" fill="#8cc152"/><path d="m192 72.039062h-136c-4.425781 0-8-3.574218-8-8 0-4.421874 3.574219-8 8-8h136c4.425781 0 8 3.578126 8 8 0 4.425782-3.574219 8-8 8zm0 0" fill="#ffce54"/><path d="m216 104.039062h-144c-4.425781 0-8-3.574218-8-8 0-4.421874 3.574219-8 8-8h144c4.425781 0 8 3.578126 8 8 0 4.425782-3.574219 8-8 8zm0 0" fill="#ac92ec"/><path d="m152 264.136719h-80c-4.425781 0-8-3.578125-8-8 0-4.425781 3.574219-8 8-8h80c4.425781 0 8 3.574219 8 8 0 4.421875-3.574219 8-8 8zm0 0" fill="#a0d468"/><path d="m264 104.039062h-16c-4.425781 0-8-3.574218-8-8 0-4.421874 3.574219-8 8-8h16c4.425781 0 8 3.578126 8 8 0 4.425782-3.574219 8-8 8zm0 0" fill="#ac92ec"/><path d="m104 296.039062h-48c-4.425781 0-8-3.574218-8-8 0-4.421874 3.574219-8 8-8h48c4.425781 0 8 3.578126 8 8 0 4.425782-3.574219 8-8 8zm0 0" fill="#ffce54"/><path d="m120 136.039062h-32c-4.425781 0-8-3.574218-8-8 0-4.421874 3.574219-8 8-8h32c4.425781 0 8 3.578126 8 8 0 4.425782-3.574219 8-8 8zm0 0" fill="#5d9cec"/><path d="m304 136.039062h-152c-4.425781 0-8-3.574218-8-8 0-4.421874 3.574219-8 8-8h152c4.425781 0 8 3.578126 8 8 0 4.425782-3.574219 8-8 8zm0 0" fill="#5d9cec"/><path d="m256 168.039062h-168c-4.425781 0-8-3.574218-8-8 0-4.421874 3.574219-8 8-8h168c4.425781 0 8 3.578126 8 8 0 4.425782-3.574219 8-8 8zm0 0" fill="#a0d468"/><path d="m176 200.039062h-88c-4.425781 0-8-3.574218-8-8 0-4.421874 3.574219-8 8-8h88c4.425781 0 8 3.578126 8 8 0 4.425782-3.574219 8-8 8zm0 0" fill="#ed5565"/><path d="m256 232.039062h-120c-4.425781 0-8-3.574218-8-8 0-4.421874 3.574219-8 8-8h120c4.425781 0 8 3.578126 8 8 0 4.425782-3.574219 8-8 8zm0 0" fill="#ac92ec"/><path d="m104 232.039062h-16c-4.425781 0-8-3.574218-8-8 0-4.421874 3.574219-8 8-8h16c4.425781 0 8 3.578126 8 8 0 4.425782-3.574219 8-8 8zm0 0" fill="#ac92ec"/><path d="m320 168.039062h-32c-4.425781 0-8-3.574218-8-8 0-4.421874 3.574219-8 8-8h32c4.425781 0 8 3.578126 8 8 0 4.425782-3.574219 8-8 8zm0 0" fill="#a0d468"/><path d="m400.078125 368.039062c-26.476563 0-48-21.519531-48-48 0-26.480468 21.523437-48 48-48 26.480469 0 48 21.519532 48 48 0 26.480469-21.527344 48-48 48zm0-72c-13.199219 0-24 10.800782-24 24 0 13.199219 10.800781 24 24 24 13.203125 0 24-10.800781 24-24 0-13.199218-10.796875-24-24-24zm0 0" fill="#967adc"/><path d="m472.078125 250.839844 24 41.601562-17.917969 10.238282c1.199219 5.601562 1.917969 11.359374 1.917969 17.359374s-.71875 11.761719-1.917969 17.359376l17.917969 9.441406-24 41.601562-18-9.511718c-8.476563 7.832031-18.71875 13.910156-30 17.4375v19.671874h-48v-19.679687c-11.277344-3.519531-21.519531-9.597656-30-17.4375l-18 9.511719-24-41.601563 17.921875-9.441406c-1.199219-5.597656-1.921875-11.359375-1.921875-17.359375s.722656-11.757812 1.921875-17.359375l-17.921875-10.238281 24-41.601563 18 10.320313c8.480469-7.832032 18.722656-13.914063 30-17.441406v-19.671876h48v19.679688c11.28125 3.519531 21.441406 9.601562 30 17.441406zm-24 69.199218c0-26.480468-21.519531-48-48-48-26.476563 0-48 21.519532-48 48 0 26.480469 21.523437 48 48 48 26.480469 0 48-21.519531 48-48zm0 0" fill="#ac92ec"/></svg>